<?xml version="1.0" encoding="iso-8859-1"?>
<!-- Generator: Adobe Illustrator 17.1.0, SVG Export Plug-In . SVG Version: 6.00 Build 0)  -->
<!DOCTYPE svg PUBLIC "-//W3C//DTD SVG 1.1//EN" "http://www.w3.org/Graphics/SVG/1.1/DTD/svg11.dtd">
<svg version="1.1" id="&#x5716;&#x5C64;_1" xmlns="http://www.w3.org/2000/svg" xmlns:xlink="http://www.w3.org/1999/xlink" x="0px"
	 y="0px" viewBox="0 0 50 50" style="enable-background:new 0 0 50 50;" xml:space="preserve">
<g>
	<path style="fill:#030104;" d="M21.606,42.199c-4.007,0-8.057-1.092-11.112-2.996c-3.4-2.119-5.273-5.041-5.273-8.227
		c0-3.42,2.049-7.389,5.77-11.178c1.734-1.764,3.635-3.245,5.5-4.284c1.871-1.043,3.619-1.594,5.057-1.594
		c1.139,0,2.09,0.354,2.748,1.025c0.988,1.007,1.249,2.578,0.766,4.568c1.884-0.77,3.657-1.176,5.145-1.176
		c1.746,0,3.054,0.56,3.782,1.618c0.762,1.107,0.794,2.593,0.095,4.419c0.034,0.011,0.067,0.021,0.098,0.03l0.007,0.002
		c0.932,0.294,2.273,0.871,3.364,1.949c1.101,1.087,1.682,2.455,1.682,3.955c0,2.689-1.848,5.664-4.943,7.958
		C30.873,40.803,26.367,42.199,21.606,42.199z M21.547,15.439c-1.162,0-2.696,0.498-4.317,1.402
		c-1.739,0.97-3.522,2.361-5.155,4.022c-3.44,3.502-5.334,7.094-5.334,10.113c0,2.643,1.618,5.107,4.557,6.938
		c2.821,1.758,6.578,2.766,10.308,2.766c9.834,0,16.11-6.141,16.11-10.369c0-1.1-0.414-2.067-1.231-2.874
		c-0.682-0.674-1.658-1.235-2.749-1.579c-0.394-0.12-0.883-0.27-1.123-0.764c-0.245-0.506-0.038-1.035,0.031-1.209
		c0.364-0.932,0.676-2.221,0.093-3.067c-0.546-0.794-1.677-0.96-2.53-0.96c-1.365,0-3.044,0.409-4.855,1.182L25.206,21.1l-0.014,0
		c-0.209,0.075-0.474,0.145-0.736,0.145c-0.514,0-0.785-0.265-0.901-0.423c-0.22-0.301-0.259-0.684-0.116-1.139
		c0.517-1.692,0.436-2.996-0.228-3.673C22.84,15.63,22.28,15.439,21.547,15.439z M19.947,39.471c-2.78,0-5.408-0.675-7.4-1.899
		c-2.1-1.291-3.365-3.114-3.564-5.132c-0.219-2.231,0.858-4.433,3.035-6.2c2.086-1.694,4.957-2.799,8.086-3.11
		c0.587-0.059,1.181-0.088,1.763-0.088c2.779,0,5.406,0.675,7.396,1.899c2.098,1.291,3.363,3.113,3.561,5.13
		c0.219,2.232-0.859,4.435-3.035,6.203c-2.086,1.695-4.957,2.8-8.086,3.11C21.118,39.442,20.527,39.471,19.947,39.471z
		 M21.867,24.56c-0.532,0-1.075,0.027-1.612,0.081c-2.836,0.283-5.421,1.269-7.278,2.778c-1.767,1.435-2.648,3.166-2.481,4.872
		c0.317,3.227,4.381,5.661,9.451,5.661c0.53,0,1.07-0.027,1.606-0.08c2.836-0.282,5.42-1.268,7.278-2.777
		c1.767-1.436,2.648-3.168,2.481-4.876C30.995,26.993,26.935,24.56,21.867,24.56z M18.891,36.238
		C18.891,36.238,18.89,36.238,18.891,36.238c-2.475,0-4.496-1.465-4.917-3.562c-0.496-2.478,1.451-4.966,4.34-5.547
		c0.407-0.082,0.821-0.123,1.229-0.123c2.475,0,4.496,1.465,4.915,3.563c0.498,2.476-1.448,4.965-4.338,5.546
		C19.713,36.196,19.299,36.238,18.891,36.238z M19.544,28.525c-0.308,0-0.621,0.031-0.93,0.093
		c-2.068,0.416-3.481,2.102-3.149,3.758c0.276,1.378,1.685,2.341,3.426,2.341c0,0,0,0,0,0c0.308,0,0.621-0.031,0.93-0.093
		c2.069-0.416,3.481-2.102,3.148-3.758C22.693,29.487,21.285,28.525,19.544,28.525z M37.389,22.194
		C37.389,22.194,37.389,22.194,37.389,22.194c-0.989,0-1.852-0.704-2.053-1.674c-0.337-1.653-1.623-2.939-3.276-3.277
		c-1.132-0.233-1.865-1.343-1.632-2.477c0.199-0.971,1.063-1.675,2.054-1.675c0.141,0,0.284,0.014,0.423,0.043
		c1.611,0.33,3.08,1.122,4.25,2.292c1.169,1.169,1.962,2.639,2.292,4.25c0.113,0.55,0.004,1.111-0.305,1.578
		c-0.309,0.467-0.781,0.785-1.33,0.897C37.673,22.18,37.531,22.194,37.389,22.194z M32.482,14.611c-0.273,0-0.51,0.194-0.565,0.461
		c-0.064,0.312,0.137,0.619,0.449,0.682c2.25,0.46,4.001,2.211,4.459,4.46c0.055,0.265,0.293,0.46,0.564,0.46h0
		c0.039,0,0.079-0.004,0.118-0.012c0.152-0.031,0.282-0.118,0.366-0.246c0.085-0.129,0.115-0.283,0.084-0.435
		c-0.27-1.319-0.919-2.522-1.877-3.48c-0.958-0.958-2.162-1.608-3.48-1.877C32.56,14.616,32.521,14.611,32.482,14.611z
		 M42.681,22.13c-1.157,0-2.099-0.941-2.099-2.099c0-4.429-3.604-8.033-8.033-8.033c-1.157,0-2.099-0.941-2.099-2.099
		c0-1.157,0.941-2.099,2.099-2.099c3.265,0,6.336,1.271,8.645,3.58c2.131,2.13,3.379,4.908,3.56,7.89h0.025v0.76
		C44.779,21.189,43.838,22.13,42.681,22.13z M32.549,9.321c-0.319,0-0.579,0.26-0.579,0.579c0,0.319,0.26,0.579,0.579,0.579
		c5.267,0,9.553,4.285,9.553,9.553c0,0.319,0.26,0.579,0.579,0.579c0.309,0,0.562-0.244,0.578-0.549
		c-0.001-0.012-0.001-0.024-0.001-0.036C43.255,14.123,38.451,9.321,32.549,9.321z"/>
</g>
</svg>
